<?xml version="1.0" standalone="no"?>
<!DOCTYPE svg PUBLIC "-//W3C//DTD SVG 20010904//EN"
 "http://www.w3.org/TR/2001/REC-SVG-20010904/DTD/svg10.dtd">
<svg version="1.0" xmlns="http://www.w3.org/2000/svg"
 width="256.000000pt" height="256.000000pt" viewBox="0 0 256.000000 256.000000"
 preserveAspectRatio="xMidYMid meet">

<g transform="translate(0.000000,256.000000) scale(0.100000,-0.100000)"
fill="#000000" stroke="none">
<path d="M1330 2520 c-30 -9 -86 -29 -124 -44 -68 -26 -70 -26 -142 -11 -79
16 -154 20 -154 7 0 -4 5 -13 10 -18 7 -7 -7 -15 -47 -23 -176 -39 -364 -168
-458 -316 -81 -126 -133 -254 -164 -405 -16 -80 -33 -172 -36 -204 -7 -54 -6
-59 10 -52 16 6 17 -1 10 -108 -11 -174 6 -216 46 -114 l16 41 31 -57 31 -57
-22 -47 c-17 -36 -22 -66 -22 -132 0 -105 12 -125 105 -181 70 -41 80 -56 80
-118 0 -27 3 -32 17 -28 10 2 24 6 32 8 9 3 25 -28 52 -101 21 -58 43 -106 48
-108 6 -2 27 -27 47 -55 171 -238 457 -401 675 -384 124 10 268 89 398 217
112 111 191 243 237 395 14 47 19 55 22 35 6 -39 20 -46 31 -17 6 14 15 64 22
111 12 85 12 85 62 127 27 23 58 61 68 83 24 53 25 151 1 213 -14 38 -16 58
-9 93 l9 44 15 -34 c13 -32 15 -33 25 -16 6 10 13 71 17 135 l6 116 22 -37
c24 -41 43 -49 43 -19 0 19 -52 230 -66 266 -6 16 -1 14 24 -9 18 -16 34 -27
37 -24 15 15 -100 257 -183 383 -99 151 -266 285 -431 345 -85 31 -225 60
-295 60 l-41 1 28 20 c15 11 27 25 27 30 0 14 -49 9 -110 -11z m277 -998 c59
-60 101 -93 126 -102 50 -16 60 -5 56 54 -3 25 -2 46 2 46 3 0 16 -11 29 -25
30 -32 40 -32 41 3 0 21 6 13 31 -40 33 -72 48 -85 48 -41 0 85 42 -78 65
-251 l7 -49 24 40 c27 47 72 70 101 54 21 -11 53 -96 53 -140 0 -65 -20 -99
-103 -178 -78 -73 -84 -82 -96 -138 -20 -89 -60 -213 -88 -270 -84 -168 -258
-330 -430 -401 -77 -31 -183 -32 -279 -3 -265 81 -494 316 -585 599 l-27 85
-78 40 c-43 22 -93 54 -111 71 -31 30 -33 35 -33 103 0 39 6 86 14 104 15 36
57 77 63 62 2 -5 18 -32 36 -60 l32 -50 5 110 c5 107 5 109 18 69 6 -23 19
-47 27 -54 12 -10 16 -8 25 15 5 14 10 46 10 69 0 67 10 105 31 111 10 4 45
26 78 50 l61 45 -7 -45 c-4 -29 -2 -45 5 -45 11 0 80 101 122 178 13 23 27 42
31 42 4 0 42 -32 85 -71 85 -77 151 -125 160 -116 3 3 -2 19 -11 36 -8 17 -13
31 -10 31 3 0 39 -18 80 -41 41 -22 83 -39 94 -37 18 3 16 8 -20 62 -25 37
-39 69 -39 89 l0 31 58 -57 c32 -31 61 -57 65 -57 4 0 7 15 7 33 l0 32 70 -75
c100 -107 105 -96 64 138 -4 17 -4 32 0 32 3 0 45 -40 93 -88z"/>
<path d="M796 1277 c-18 -27 -13 -52 12 -62 18 -8 220 -34 265 -35 20 0 27 5
27 20 0 16 -19 25 -111 54 -161 51 -174 53 -193 23z"/>
<path d="M1618 1252 c-124 -39 -150 -54 -130 -74 14 -14 276 15 298 33 17 14
18 51 2 67 -18 18 -41 14 -170 -26z"/>
<path d="M970 1104 c-21 -25 -16 -75 9 -96 30 -23 56 -23 81 2 25 25 26 72 2
93 -23 21 -75 22 -92 1z"/>
<path d="M1517 1102 c-38 -42 -8 -102 51 -102 33 0 62 29 62 62 0 49 -80 77
-113 40z"/>
<path d="M1126 763 c-3 -3 -6 -21 -6 -39 0 -36 22 -56 71 -68 14 -3 40 -19 57
-36 43 -40 84 -40 122 0 15 16 49 38 76 48 45 16 49 20 49 51 0 19 -6 36 -12
39 -9 2 -13 -7 -13 -27 0 -27 -4 -31 -42 -41 -23 -7 -54 -25 -69 -41 -33 -35
-68 -37 -96 -5 -12 13 -38 29 -59 36 -53 17 -66 29 -60 56 6 23 -5 39 -18 27z"/>
<path d="M1050 456 c0 -23 69 -74 130 -97 76 -29 214 -24 280 10 63 32 110 69
110 87 0 23 -27 16 -74 -20 -60 -46 -107 -61 -191 -60 -75 0 -140 23 -201 69
-37 28 -54 32 -54 11z"/>
</g>
</svg>
